<?xml version="1.0" standalone="no"?>
<!DOCTYPE svg PUBLIC "-//W3C//DTD SVG 20010904//EN"
 "http://www.w3.org/TR/2001/REC-SVG-20010904/DTD/svg10.dtd">
<svg version="1.0" xmlns="http://www.w3.org/2000/svg"
 width="260.000000pt" height="260.000000pt" viewBox="0 0 260.000000 260.000000"
 preserveAspectRatio="xMidYMid meet">
<metadata>
Created by potrace 1.11, written by Peter Selinger 2001-2013
</metadata>
<g transform="translate(0.000000,260.000000) scale(0.100000,-0.100000)"
fill="#000000" stroke="none">
<path d="M174 2579 c-65 -25 -129 -88 -153 -154 -18 -48 -19 -93 -18 -1140 2
-940 4 -1093 17 -1115 61 -104 98 -137 180 -158 34 -9 316 -12 1125 -10 1221
3 1116 -4 1202 84 77 80 73 6 70 1229 -2 1041 -3 1092 -21 1127 -30 61 -79
108 -141 133 l-57 23 -1077 0 c-1036 0 -1078 -1 -1127 -19z"/>
</g>
</svg>
